<?xml version="1.0" encoding="UTF-8"?>
<svg id="Camada" xmlns="http://www.w3.org/2000/svg" version="1.1" xmlns:xlink="http://www.w3.org/1999/xlink" viewBox="0 0 160 160">
  <!-- Generator: Adobe Illustrator 29.3.1, SVG Export Plug-In . SVG Version: 2.1.0 Build 151)  -->
  <defs>
    <style>
      .st0 {
        fill: #00096b;
      }

      .st1 {
        fill: #1c381c;
      }

      .st2 {
        fill: url(#Gradiente_sem_nome_11);
      }

      .st3 {
        fill: url(#Gradiente_sem_nome_19);
      }

      .st4 {
        fill: url(#Gradiente_sem_nome_15);
      }

      .st5 {
        fill: #010b6e;
      }
    </style>
    <linearGradient id="Gradiente_sem_nome_19" data-name="Gradiente sem nome 19" x1="73.75" y1="74.92" x2="82.8" y2="74.92" gradientUnits="userSpaceOnUse">
      <stop offset="0" stop-color="#000373"/>
      <stop offset="1" stop-color="#1c381c"/>
    </linearGradient>
    <linearGradient id="Gradiente_sem_nome_11" data-name="Gradiente sem nome 11" x1="60.03" y1="84.15" x2="77.02" y2="84.15" gradientUnits="userSpaceOnUse">
      <stop offset="0" stop-color="#000373"/>
      <stop offset=".04" stop-color="#010b6e"/>
      <stop offset="1" stop-color="#1c381c"/>
    </linearGradient>
    <linearGradient id="Gradiente_sem_nome_15" data-name="Gradiente sem nome 15" x1="69.47" y1="79.48" x2="83.48" y2="79.48" gradientUnits="userSpaceOnUse">
      <stop offset="0" stop-color="#000373"/>
      <stop offset="1" stop-color="#1c381c"/>
    </linearGradient>
  </defs>
  <circle class="st0" cx="87.4" cy="65.75" r="4.66"/>
  <circle class="st1" cx="65.66" cy="65.75" r="4.66"/>
  <path class="st3" d="M75.93,77.9c.07-.15.15-.3.24-.44.04-.07.09-.14.14-.21.15-.23-.02.07-.09.11.14-.09.26-.29.38-.41.06-.06.12-.11.18-.17.05-.04.28-.22.04-.04s0,0,.05-.03c.07-.05.14-.1.21-.14.14-.09.29-.18.43-.27.32-.18.64-.34.97-.49.24-.11-.03.02-.13.05.08-.03.16-.06.24-.1.19-.07.37-.15.56-.21.4-.14.8-.28,1.21-.38.2-.05.41-.09.62-.13.39-.08-.21,0,.04,0,.11,0,.22-.02.33-.03.47-.03.93-.01,1.4.03,1.04.11,2.04-1,2-2-.05-1.17-.88-1.89-2-2-2.2-.22-4.29.44-6.27,1.33-1.62.73-3.21,1.88-3.99,3.52-.45.94-.29,2.2.72,2.74.89.47,2.26.29,2.74-.72h0Z"/>
  <path class="st1" d="M90.5,75.53c.31.11-.03-.05.26.12.22.12.43.24.64.38.43.28.53.37.95.76.31.29.62.61.88.95-.2-.26.01.04.08.14.11.17.19.36.29.54.26.51-.1-.04-.06-.17,0,.03.02.07.02.1,0,.15.1.37.13.51.05.22,0-.02,0-.06.01.13.02.26.02.39,0,.2,0,.4-.02.6-.02.41-.02.17,0,.08-.02.1-.04.2-.06.3-.04.2-.1.39-.16.58-.07.22,0,.02.03-.03-.06.14-.14.28-.21.41-.09.15-.19.28-.29.43-.26.4.24-.24-.02.05-.32.34-.63.69-1,.98-.45.36-1.37.81-1.93.99-.4.13-.81.23-1.22.31-.18.04-.37.07-.56.1-.24.04.04,0,.08-.01-.15.02-.3.03-.44.04-.89.07-1.78.08-2.67,0-.11-.01-.21-.02-.32-.03.33.05-.09-.02-.15-.03-.2-.04-.4-.08-.6-.13-.35-.09-.69-.19-1.02-.32-.05-.02-.11-.04-.16-.06-.33-.12.34.16.15.06-.09-.04-.18-.08-.27-.12-.27-.12-.55-.26-.84-.35-1.03-.31-2.18.37-2.46,1.4s.36,2.15,1.4,2.46c.31.09-.48-.23-.25-.11.08.04.16.07.23.11.39.18.79.35,1.19.5.93.34,1.9.5,2.88.62,2.12.24,4.46.05,6.47-.69,2.15-.79,4.14-2.2,5.3-4.22,1.05-1.84,1.29-4.45.39-6.4-1.07-2.3-3.26-4.13-5.62-4.99-1.02-.37-2.19.42-2.46,1.4-.31,1.11.38,2.09,1.4,2.46h0Z"/>
  <path class="st5" d="M60.72,82.47c-.19-.06-.38-.13-.56-.2.46.18-.04-.03-.1-.06-.35-.17-.69-.37-1.02-.57s-.65-.42-.97-.64c-.15-.1-.29-.21-.44-.32-.42-.31.19.16-.1-.08-.21-.17-.41-.33-.61-.51-.08-.08-.17-.15-.25-.23-.08-.08-.15-.16-.22-.24.14.19.15.2.02.01-.08-.14-.16-.28-.24-.42-.19-.33.08.28-.07-.2-.06-.18-.09-.37-.14-.55.12.48,0-.06,0-.2,0-.19,0-.38.02-.57-.02.48,0,0,.03-.12.05-.22.12-.42.19-.63-.13.41.03-.04.08-.13.1-.19.22-.37.35-.55-.2.27-.03.06.09-.07.04-.04.46-.45.25-.25s.23-.16.29-.19c.13-.08.26-.15.39-.22.09-.05.18-.09.27-.13-.25.1-.27.11-.06.03.34-.11.67-.22,1.01-.3.15-.03.29-.06.44-.09.23-.03.2-.03-.09,0,.1-.01.2-.02.29-.03.33-.03.67-.04,1-.05,1.05,0,2.05-.92,2-2s-.88-2.01-2-2c-3.06.02-6.47,1.14-7.86,4.12-.74,1.58-.96,3.46-.37,5.13.54,1.53,1.52,2.56,2.77,3.53,1.38,1.07,2.87,2.05,4.55,2.58,1,.31,2.23-.37,2.46-1.4.25-1.09-.33-2.13-1.4-2.46h0Z"/>
  <path class="st2" d="M74.88,81.57c-1.09,1.55-3.73,1.97-5.73,2.1-2.88.18-5.69-.27-8.43-1.16-1.03-.34-2.18.39-2.46,1.4-.3,1.09.37,2.12,1.4,2.46,3.33,1.09,6.91,1.6,10.4,1.23,3.2-.34,6.34-1.25,8.27-4,.62-.88.16-2.22-.72-2.74-1-.58-2.11-.17-2.74.72h0Z"/>
  <path class="st4" d="M68.36,74.78c1.38,1.08,2.75,2.17,3.95,3.45,1.12,1.19,1.91,2.6,2.93,3.94,1.98,2.59,4.87,4.99,8.19,5.41,1.07.13,2-1.02,2-2,0-1.19-.92-1.87-2-2,.48.06.08,0-.02-.03-.14-.04-.28-.08-.42-.12,0,0-.47-.19-.28-.1.21.09-.25-.13-.29-.15-.63-.32-1.24-.71-1.79-1.15-.86-.67-1.94-1.83-2.64-2.85-.94-1.37-1.86-2.75-3.02-3.95s-2.47-2.25-3.78-3.27c-.85-.66-2-.83-2.83,0-.69.69-.86,2.16,0,2.83h0Z"/>
</svg>